<svg width="29" height="33" viewBox="0 0 29 33" fill="none" xmlns="http://www.w3.org/2000/svg">
<path d="M20.5522 21.127C22.2469 18.5137 23.0059 15.2737 22.6774 12.0552C22.349 8.8367 20.9572 5.87701 18.7806 3.76829C16.604 1.65956 13.8031 0.557312 10.9382 0.682057C8.07327 0.806802 5.3557 2.14934 3.32913 4.44108C1.30257 6.73283 0.116472 9.80476 0.00813227 13.0423C-0.100207 16.2798 0.877203 19.4442 2.74482 21.9024C4.61243 24.3605 7.23252 25.9312 10.0809 26.3C12.9293 26.6689 15.7959 25.8089 18.1072 23.8919H18.1054C18.1579 23.971 18.214 24.0462 18.277 24.1194L25.0152 31.7338C25.3433 32.1049 25.7885 32.3135 26.2528 32.3137C26.7171 32.3139 27.1624 32.1057 27.4908 31.7348C27.8192 31.364 28.0038 30.8609 28.0039 30.3362C28.0041 29.8116 27.8198 29.3083 27.4917 28.9372L20.7535 21.3228C20.6909 21.2512 20.6236 21.1871 20.5522 21.127ZM21.0037 13.5244C21.0037 14.9529 20.7548 16.3674 20.271 17.6872C19.7873 19.0069 19.0782 20.2061 18.1844 21.2162C17.2905 22.2263 16.2293 23.0275 15.0615 23.5742C13.8936 24.1208 12.6418 24.4022 11.3777 24.4022C10.1136 24.4022 8.86192 24.1208 7.69404 23.5742C6.52616 23.0275 5.465 22.2263 4.57114 21.2162C3.67728 20.2061 2.96824 19.0069 2.48449 17.6872C2.00074 16.3674 1.75175 14.9529 1.75175 13.5244C1.75175 10.6394 2.76592 7.87264 4.57114 5.83266C6.37636 3.79268 8.82477 2.64663 11.3777 2.64663C13.9307 2.64663 16.3791 3.79268 18.1844 5.83266C19.9896 7.87264 21.0037 10.6394 21.0037 13.5244Z" fill="#1B47E2"/>
</svg>
